<mxfile host="app.diagrams.net" modified="2023-06-02T18:32:03.305Z" agent="Mozilla/5.0 (Windows NT 10.0; Win64; x64) AppleWebKit/537.36 (KHTML, like Gecko) Chrome/114.0.0.0 Safari/537.36" etag="zyE1PXRYH_3MRCq9lKSI" version="21.3.7" type="device">
  <diagram name="Page-1" id="USFggCnFLPCVFnvN9Lyy">
    <mxGraphModel dx="989" dy="549" grid="1" gridSize="10" guides="1" tooltips="1" connect="1" arrows="1" fold="1" page="1" pageScale="1" pageWidth="850" pageHeight="1100" math="0" shadow="0">
      <root>
        <mxCell id="0" />
        <mxCell id="1" parent="0" />
        <mxCell id="dqIHCXjL7Iw0m2zly_ci-4" style="edgeStyle=orthogonalEdgeStyle;rounded=0;orthogonalLoop=1;jettySize=auto;html=1;" edge="1" parent="1" source="dqIHCXjL7Iw0m2zly_ci-1" target="dqIHCXjL7Iw0m2zly_ci-3">
          <mxGeometry relative="1" as="geometry" />
        </mxCell>
        <mxCell id="dqIHCXjL7Iw0m2zly_ci-5" value="Create Temp Account" style="edgeLabel;html=1;align=center;verticalAlign=middle;resizable=0;points=[];" vertex="1" connectable="0" parent="dqIHCXjL7Iw0m2zly_ci-4">
          <mxGeometry x="-0.16" y="-2" relative="1" as="geometry">
            <mxPoint as="offset" />
          </mxGeometry>
        </mxCell>
        <mxCell id="dqIHCXjL7Iw0m2zly_ci-8" style="edgeStyle=orthogonalEdgeStyle;rounded=0;orthogonalLoop=1;jettySize=auto;html=1;entryX=0;entryY=0.5;entryDx=0;entryDy=0;" edge="1" parent="1" source="dqIHCXjL7Iw0m2zly_ci-1" target="dqIHCXjL7Iw0m2zly_ci-7">
          <mxGeometry relative="1" as="geometry" />
        </mxCell>
        <mxCell id="dqIHCXjL7Iw0m2zly_ci-26" value="Login" style="edgeLabel;html=1;align=center;verticalAlign=middle;resizable=0;points=[];" vertex="1" connectable="0" parent="dqIHCXjL7Iw0m2zly_ci-8">
          <mxGeometry x="-0.1875" y="1" relative="1" as="geometry">
            <mxPoint x="-23" y="1" as="offset" />
          </mxGeometry>
        </mxCell>
        <mxCell id="dqIHCXjL7Iw0m2zly_ci-25" style="edgeStyle=orthogonalEdgeStyle;rounded=0;orthogonalLoop=1;jettySize=auto;html=1;" edge="1" parent="1" source="dqIHCXjL7Iw0m2zly_ci-1" target="dqIHCXjL7Iw0m2zly_ci-24">
          <mxGeometry relative="1" as="geometry" />
        </mxCell>
        <mxCell id="dqIHCXjL7Iw0m2zly_ci-27" value="Register" style="edgeLabel;html=1;align=center;verticalAlign=middle;resizable=0;points=[];" vertex="1" connectable="0" parent="dqIHCXjL7Iw0m2zly_ci-25">
          <mxGeometry x="0.1846" y="-2" relative="1" as="geometry">
            <mxPoint as="offset" />
          </mxGeometry>
        </mxCell>
        <mxCell id="dqIHCXjL7Iw0m2zly_ci-1" value="Account Menu&lt;br&gt;- Login&lt;br&gt;- Register&lt;br&gt;- Guest" style="whiteSpace=wrap;html=1;aspect=fixed;" vertex="1" parent="1">
          <mxGeometry x="370" y="240" width="90" height="90" as="geometry" />
        </mxCell>
        <mxCell id="dqIHCXjL7Iw0m2zly_ci-3" value="Main Menu" style="whiteSpace=wrap;html=1;aspect=fixed;" vertex="1" parent="1">
          <mxGeometry x="360" y="490" width="80" height="80" as="geometry" />
        </mxCell>
        <mxCell id="dqIHCXjL7Iw0m2zly_ci-9" style="edgeStyle=orthogonalEdgeStyle;rounded=0;orthogonalLoop=1;jettySize=auto;html=1;entryX=1;entryY=0.5;entryDx=0;entryDy=0;" edge="1" parent="1" source="dqIHCXjL7Iw0m2zly_ci-7" target="dqIHCXjL7Iw0m2zly_ci-3">
          <mxGeometry relative="1" as="geometry">
            <Array as="points">
              <mxPoint x="640" y="530" />
            </Array>
          </mxGeometry>
        </mxCell>
        <mxCell id="dqIHCXjL7Iw0m2zly_ci-10" value="Successful Authentication" style="edgeLabel;html=1;align=center;verticalAlign=middle;resizable=0;points=[];" vertex="1" connectable="0" parent="dqIHCXjL7Iw0m2zly_ci-9">
          <mxGeometry x="-0.4051" y="1" relative="1" as="geometry">
            <mxPoint as="offset" />
          </mxGeometry>
        </mxCell>
        <mxCell id="dqIHCXjL7Iw0m2zly_ci-13" style="edgeStyle=orthogonalEdgeStyle;rounded=0;orthogonalLoop=1;jettySize=auto;html=1;entryX=0.5;entryY=0;entryDx=0;entryDy=0;exitX=-0.012;exitY=0.175;exitDx=0;exitDy=0;exitPerimeter=0;" edge="1" parent="1" source="dqIHCXjL7Iw0m2zly_ci-7" target="dqIHCXjL7Iw0m2zly_ci-1">
          <mxGeometry relative="1" as="geometry">
            <Array as="points">
              <mxPoint x="550" y="274" />
              <mxPoint x="550" y="210" />
              <mxPoint x="400" y="210" />
            </Array>
          </mxGeometry>
        </mxCell>
        <mxCell id="dqIHCXjL7Iw0m2zly_ci-15" value="Account doesn&#39;t Exist&lt;br&gt;" style="edgeLabel;html=1;align=center;verticalAlign=middle;resizable=0;points=[];" vertex="1" connectable="0" parent="dqIHCXjL7Iw0m2zly_ci-13">
          <mxGeometry x="-0.412" y="-3" relative="1" as="geometry">
            <mxPoint x="-73" y="-31" as="offset" />
          </mxGeometry>
        </mxCell>
        <mxCell id="dqIHCXjL7Iw0m2zly_ci-7" value="Login&lt;br&gt;- Enter Name&lt;br&gt;- Enter Password&lt;br&gt;- Login Button" style="whiteSpace=wrap;html=1;aspect=fixed;" vertex="1" parent="1">
          <mxGeometry x="600" y="260" width="80" height="80" as="geometry" />
        </mxCell>
        <mxCell id="dqIHCXjL7Iw0m2zly_ci-11" style="edgeStyle=orthogonalEdgeStyle;rounded=0;orthogonalLoop=1;jettySize=auto;html=1;" edge="1" parent="1" source="dqIHCXjL7Iw0m2zly_ci-7" target="dqIHCXjL7Iw0m2zly_ci-7">
          <mxGeometry relative="1" as="geometry">
            <Array as="points">
              <mxPoint x="810" y="300" />
            </Array>
          </mxGeometry>
        </mxCell>
        <mxCell id="dqIHCXjL7Iw0m2zly_ci-12" value="Invalid Credentials" style="edgeLabel;html=1;align=center;verticalAlign=middle;resizable=0;points=[];" vertex="1" connectable="0" parent="dqIHCXjL7Iw0m2zly_ci-11">
          <mxGeometry x="-0.5545" y="2" relative="1" as="geometry">
            <mxPoint as="offset" />
          </mxGeometry>
        </mxCell>
        <mxCell id="dqIHCXjL7Iw0m2zly_ci-29" style="edgeStyle=orthogonalEdgeStyle;rounded=0;orthogonalLoop=1;jettySize=auto;html=1;entryX=-0.004;entryY=0.329;entryDx=0;entryDy=0;entryPerimeter=0;" edge="1" parent="1" source="dqIHCXjL7Iw0m2zly_ci-24" target="dqIHCXjL7Iw0m2zly_ci-1">
          <mxGeometry relative="1" as="geometry">
            <mxPoint x="360" y="270" as="targetPoint" />
            <Array as="points">
              <mxPoint x="320" y="271" />
              <mxPoint x="320" y="270" />
            </Array>
          </mxGeometry>
        </mxCell>
        <mxCell id="dqIHCXjL7Iw0m2zly_ci-30" value="Successful Creation" style="edgeLabel;html=1;align=center;verticalAlign=middle;resizable=0;points=[];" vertex="1" connectable="0" parent="dqIHCXjL7Iw0m2zly_ci-29">
          <mxGeometry x="-0.2758" relative="1" as="geometry">
            <mxPoint x="14" y="-11" as="offset" />
          </mxGeometry>
        </mxCell>
        <mxCell id="dqIHCXjL7Iw0m2zly_ci-31" value="Invalid Criteria" style="edgeStyle=orthogonalEdgeStyle;rounded=0;orthogonalLoop=1;jettySize=auto;html=1;entryX=0;entryY=0.5;entryDx=0;entryDy=0;" edge="1" parent="1" source="dqIHCXjL7Iw0m2zly_ci-24" target="dqIHCXjL7Iw0m2zly_ci-24">
          <mxGeometry x="0.25" relative="1" as="geometry">
            <mxPoint x="60" y="360" as="targetPoint" />
            <Array as="points">
              <mxPoint x="190" y="360" />
              <mxPoint x="90" y="360" />
              <mxPoint x="90" y="300" />
            </Array>
            <mxPoint as="offset" />
          </mxGeometry>
        </mxCell>
        <mxCell id="dqIHCXjL7Iw0m2zly_ci-24" value="Register Account&lt;br&gt;- Name&lt;br&gt;- Password&lt;br&gt;- Confirm Password" style="whiteSpace=wrap;html=1;aspect=fixed;" vertex="1" parent="1">
          <mxGeometry x="150" y="250" width="90" height="90" as="geometry" />
        </mxCell>
      </root>
    </mxGraphModel>
  </diagram>
</mxfile>
